<svg width="32" height="32" xmlns="http://www.w3.org/2000/svg">
 <title>mail</title>

 <g>
  <title>background</title>
  <rect fill="none" id="canvas_background" height="402" width="582" y="-1" x="-1"/>
 </g>
 <g>
  <title>Layer 1</title>
  <path fill="#aa5757" id="svg_1" d="m26.666,0l-21.332,0c-2.934,0 -5.334,2.4 -5.334,5.333l0,21.333c0,2.934 2.4,5.334 5.334,5.334l21.332,0c2.936,0 5.334,-2.4 5.334,-5.334l0,-21.333c0,-2.934 -2.398,-5.333 -5.334,-5.333zm-18.666,8l16,0c0.286,0 0.563,0.061 0.817,0.177l-8.817,10.286l-8.817,-10.287c0.254,-0.116 0.531,-0.177 0.817,-0.177l0,0.001zm-2,14l0,-12c0,-0.042 0.002,-0.084 0.004,-0.125l5.864,6.842l-5.8,5.8c-0.045,-0.167 -0.069,-0.34 -0.069,-0.517l0.001,0zm18,2l-16,0c-0.177,0 -0.35,-0.024 -0.517,-0.069l5.691,-5.691l2.826,3.297l2.826,-3.297l5.691,5.691c-0.167,0.045 -0.34,0.069 -0.517,0.069zm2,-2c0,0.177 -0.024,0.35 -0.069,0.517l-5.8,-5.8l5.864,-6.842c0.003,0.041 0.004,0.083 0.004,0.125l0,12l0.001,0z"/>
 </g>
</svg>