<svg xmlns="http://www.w3.org/2000/svg" width="12.844" height="11.125" viewBox="0 0 12.844 11.125">
  <metadata><?xpacket begin="﻿" id="W5M0MpCehiHzreSzNTczkc9d"?>
<x:xmpmeta xmlns:x="adobe:ns:meta/" x:xmptk="Adobe XMP Core 5.6-c138 79.159824, 2016/09/14-01:09:01        ">
   <rdf:RDF xmlns:rdf="http://www.w3.org/1999/02/22-rdf-syntax-ns#">
      <rdf:Description rdf:about=""/>
   </rdf:RDF>
</x:xmpmeta>
                                                                                                    
                                                                                                    
                                                                                                    
                                                                                                    
                                                                                                    
                                                                                                    
                                                                                                    
                                                                                                    
                                                                                                    
                                                                                                    
                                                                                                    
                                                                                                    
                                                                                                    
                                                                                                    
                                                                                                    
                                                                                                    
                                                                                                    
                                                                                                    
                                                                                                    
                                                                                                    
                           
<?xpacket end="w"?></metadata>
<defs>
    <style>
      .cls-1 {
        fill-rule: evenodd;
      }
    </style>
  </defs>
  <path id="fa-camera" class="cls-1" d="M943,709.643a1.932,1.932,0,1,0,.566-1.363A1.861,1.861,0,0,0,943,709.643Zm5.143-4.714-0.342-.911a1.248,1.248,0,0,0-.465-0.566,1.2,1.2,0,0,0-.693-0.238h-3.429a1.2,1.2,0,0,0-.693.238,1.248,1.248,0,0,0-.465.566l-0.342.911h-1.5a1.714,1.714,0,0,0-1.714,1.714v6a1.714,1.714,0,0,0,1.714,1.714h9.429a1.714,1.714,0,0,0,1.714-1.714v-6a1.714,1.714,0,0,0-1.714-1.714h-1.5Zm-6.214,4.714a3.006,3.006,0,1,1,.88,2.119A2.892,2.892,0,0,1,941.929,709.643Z" transform="translate(-938.5 -703.219)"/>
</svg>
