<svg xmlns="http://www.w3.org/2000/svg" width="10.281" height="10.281" viewBox="0 0 10.281 10.281">
  <metadata><?xpacket begin="﻿" id="W5M0MpCehiHzreSzNTczkc9d"?>
<x:xmpmeta xmlns:x="adobe:ns:meta/" x:xmptk="Adobe XMP Core 5.6-c138 79.159824, 2016/09/14-01:09:01        ">
   <rdf:RDF xmlns:rdf="http://www.w3.org/1999/02/22-rdf-syntax-ns#">
      <rdf:Description rdf:about=""/>
   </rdf:RDF>
</x:xmpmeta>
                                                                                                    
                                                                                                    
                                                                                                    
                                                                                                    
                                                                                                    
                                                                                                    
                                                                                                    
                                                                                                    
                                                                                                    
                                                                                                    
                                                                                                    
                                                                                                    
                                                                                                    
                                                                                                    
                                                                                                    
                                                                                                    
                                                                                                    
                                                                                                    
                                                                                                    
                                                                                                    
                           
<?xpacket end="w"?></metadata>
<defs>
    <style>
      .cls-1 {
        fill-rule: evenodd;
      }
    </style>
  </defs>
  <path id="fa-crosshairs" class="cls-1" d="M946.762,710.834a2.943,2.943,0,0,1-1.262.753v-0.73a0.434,0.434,0,0,0-.429-0.428h-0.857a0.434,0.434,0,0,0-.428.428v0.73a3,3,0,0,1-2.016-2.016h0.73a0.436,0.436,0,0,0,.429-0.428v-0.857a0.435,0.435,0,0,0-.429-0.429h-0.73a3,3,0,0,1,2.016-2.015v0.729a0.434,0.434,0,0,0,.428.429h0.857a0.434,0.434,0,0,0,.429-0.429v-0.729a3,3,0,0,1,2.016,2.015h-0.73a0.434,0.434,0,0,0-.429.429v0.857a0.434,0.434,0,0,0,.429.428h0.73A2.939,2.939,0,0,1,946.762,710.834Zm2.9-2.85a0.413,0.413,0,0,0-.3-0.127H948.4a3.873,3.873,0,0,0-2.9-2.9V704a0.435,0.435,0,0,0-.429-0.429h-0.857a0.436,0.436,0,0,0-.428.429v0.958a3.873,3.873,0,0,0-2.9,2.9h-0.957a0.434,0.434,0,0,0-.429.429v0.857a0.434,0.434,0,0,0,.429.428h0.957a3.876,3.876,0,0,0,2.9,2.9v0.958a0.434,0.434,0,0,0,.428.428h0.857a0.434,0.434,0,0,0,.429-0.428v-0.958a3.876,3.876,0,0,0,2.9-2.9h0.957a0.436,0.436,0,0,0,.429-0.428v-0.857A0.414,0.414,0,0,0,949.658,707.984Z" transform="translate(-939.5 -703.563)"/>
</svg>
