<svg xmlns="http://www.w3.org/2000/svg" width="24.156" height="19.31" viewBox="0 0 24.156 19.31">
  <metadata><?xpacket begin="﻿" id="W5M0MpCehiHzreSzNTczkc9d"?>
<x:xmpmeta xmlns:x="adobe:ns:meta/" x:xmptk="Adobe XMP Core 5.6-c138 79.159824, 2016/09/14-01:09:01        ">
   <rdf:RDF xmlns:rdf="http://www.w3.org/1999/02/22-rdf-syntax-ns#">
      <rdf:Description rdf:about=""/>
   </rdf:RDF>
</x:xmpmeta>
                                                                                                    
                                                                                                    
                                                                                                    
                                                                                                    
                                                                                                    
                                                                                                    
                                                                                                    
                                                                                                    
                                                                                                    
                                                                                                    
                                                                                                    
                                                                                                    
                                                                                                    
                                                                                                    
                                                                                                    
                                                                                                    
                                                                                                    
                                                                                                    
                                                                                                    
                                                                                                    
                           
<?xpacket end="w"?></metadata>
<defs>
    <style>
      .cls-1 {
        fill: #8e8d8d;
        fill-rule: evenodd;
      }
    </style>
  </defs>
  <path id="Camera_Icon" data-name="Camera Icon" class="cls-1" d="M596.61,2539.9h20.927a1.609,1.609,0,0,1,1.609,1.61v12.88a1.609,1.609,0,0,1-1.609,1.61H596.61a1.61,1.61,0,0,1-1.61-1.61v-12.88A1.61,1.61,0,0,1,596.61,2539.9Zm10.463,2.42a5.43,5.43,0,1,1-5.433,5.43A5.431,5.431,0,0,1,607.073,2542.32Zm-4.829-5.64H611.9a1.61,1.61,0,0,1,1.61,1.61v2.28a1.61,1.61,0,0,1-1.61,1.61h-9.658a1.61,1.61,0,0,1-1.61-1.61v-2.28A1.61,1.61,0,0,1,602.244,2536.68Zm4.829,7.65a3.42,3.42,0,1,1-3.421,3.42A3.42,3.42,0,0,1,607.073,2544.33Z" transform="translate(-595 -2536.69)"/>
</svg>
